<?xml version="1.0" encoding="utf-8" standalone="no"?>
<!DOCTYPE svg PUBLIC "-//W3C//DTD SVG 1.1//EN"
  "http://www.w3.org/Graphics/SVG/1.1/DTD/svg11.dtd">
<svg xmlns:xlink="http://www.w3.org/1999/xlink" width="720pt" height="122.4pt" viewBox="0 0 720 122.4" xmlns="http://www.w3.org/2000/svg" version="1.1">
 <metadata>
  <rdf:RDF xmlns:dc="http://purl.org/dc/elements/1.1/" xmlns:cc="http://creativecommons.org/ns#" xmlns:rdf="http://www.w3.org/1999/02/22-rdf-syntax-ns#">
   <cc:Work>
    <dc:type rdf:resource="http://purl.org/dc/dcmitype/StillImage"/>
    <dc:date>2026-10-08T06:11:11.504008</dc:date>
    <dc:format>image/svg+xml</dc:format>
    <dc:creator>
     <cc:Agent>
      <dc:title>Matplotlib v3.11.2, https://matplotlib.org/</dc:title>
     </cc:Agent>
    </dc:creator>
   </cc:Work>
  </rdf:RDF>
 </metadata>
 <defs>
  <style type="text/css">*{stroke-linejoin: round; stroke-linecap: butt}</style>
 </defs>
 <g id="figure_1">
  <g id="patch_1">
   <path d="M 0 122.4 
L 720 122.4 
L 720 0 
L 0 0 
z
" style="fill: #ffffff"/>
  </g>
  <g id="axes_1">
   <g id="patch_2">
    <path d="M 6.570238 98.913444 
L 136.51815 98.913444 
Q 139.374148 98.913444 139.374148 98.447846 
L 139.374148 23.952154 
Q 139.374148 23.486556 136.51815 23.486556 
L 6.570238 23.486556 
Q 3.71424 23.486556 3.71424 23.952154 
L 3.71424 98.447846 
Q 3.71424 98.913444 6.570238 98.913444 
z
" clip-path="url(#pb9f2e866b8)" style="fill: #eef4f7; stroke: #9badb6; stroke-width: 0.8; stroke-linejoin: miter"/>
   </g>
   <g id="patch_3">
    <path d="M 149.370142 98.913444 
L 279.318054 98.913444 
Q 282.174052 98.913444 282.174052 98.447846 
L 282.174052 23.952154 
Q 282.174052 23.486556 279.318054 23.486556 
L 149.370142 23.486556 
Q 146.514144 23.486556 146.514144 23.952154 
L 146.514144 98.447846 
Q 146.514144 98.913444 149.370142 98.913444 
z
" clip-path="url(#pb9f2e866b8)" style="fill: #eef4f7; stroke: #9badb6; stroke-width: 0.8; stroke-linejoin: miter"/>
   </g>
   <g id="patch_4">
    <path d="M 292.170046 98.913444 
L 422.117958 98.913444 
Q 424.973956 98.913444 424.973956 98.447846 
L 424.973956 23.952154 
Q 424.973956 23.486556 422.117958 23.486556 
L 292.170046 23.486556 
Q 289.314048 23.486556 289.314048 23.952154 
L 289.314048 98.447846 
Q 289.314048 98.913444 292.170046 98.913444 
z
" clip-path="url(#pb9f2e866b8)" style="fill: #eef4f7; stroke: #9badb6; stroke-width: 0.8; stroke-linejoin: miter"/>
   </g>
   <g id="patch_5">
    <path d="M 434.96995 98.913444 
L 564.917862 98.913444 
Q 567.77386 98.913444 567.77386 98.447846 
L 567.77386 23.952154 
Q 567.77386 23.486556 564.917862 23.486556 
L 434.96995 23.486556 
Q 432.113952 23.486556 432.113952 23.952154 
L 432.113952 98.447846 
Q 432.113952 98.913444 434.96995 98.913444 
z
" clip-path="url(#pb9f2e866b8)" style="fill: #eef4f7; stroke: #9badb6; stroke-width: 0.8; stroke-linejoin: miter"/>
   </g>
   <g id="patch_6">
    <path d="M 577.769854 98.913444 
L 707.717766 98.913444 
Q 710.573764 98.913444 710.573764 98.447846 
L 710.573764 23.952154 
Q 710.573764 23.486556 707.717766 23.486556 
L 577.769854 23.486556 
Q 574.913856 23.486556 574.913856 23.952154 
L 574.913856 98.447846 
Q 574.913856 98.913444 577.769854 98.913444 
z
" clip-path="url(#pb9f2e866b8)" style="fill: #eef4f7; stroke: #9badb6; stroke-width: 0.8; stroke-linejoin: miter"/>
   </g>
   <g id="text_1">
    <text style="font-size: 8px; font-family: 'DejaVu Sans'; fill: #183545" transform="translate(42.067944 58.477344)">Capture intake</text>
    <text style="font-size: 8px; font-family: 'DejaVu Sans'; fill: #183545" transform="translate(39.562319 68.079531)">Identity / timing</text>
   </g>
   <g id="patch_7">
    <path d="M 139.232429 61.2 
Q 143.298899 61.2 146.247335 61.2 
" style="fill: none; stroke: #246783; stroke-linecap: round"/>
    <path d="M 142.167335 59.16 
L 146.247335 61.2 
L 142.167335 63.24 
" style="fill: none; stroke: #246783; stroke-linecap: round"/>
   </g>
   <g id="text_2">
    <text style="font-size: 8px; font-family: 'DejaVu Sans'; fill: #183545" transform="translate(191.687848 58.477344)">RGB SfM or</text>
    <text style="font-size: 8px; font-family: 'DejaVu Sans'; fill: #183545" transform="translate(187.045973 68.079531)">metric RGB-D</text>
   </g>
   <g id="patch_8">
    <path d="M 282.032333 61.2 
Q 286.098803 61.2 289.047239 61.2 
" style="fill: none; stroke: #246783; stroke-linecap: round"/>
    <path d="M 284.967239 59.16 
L 289.047239 61.2 
L 284.967239 63.24 
" style="fill: none; stroke: #246783; stroke-linecap: round"/>
   </g>
   <g id="text_3">
    <text style="font-size: 8px; font-family: 'DejaVu Sans'; fill: #183545" transform="translate(325.030252 58.477344)">Supported walls</text>
    <text style="font-size: 8px; font-family: 'DejaVu Sans'; fill: #183545" transform="translate(324.085877 68.079531)">Explicit stitching</text>
   </g>
   <g id="patch_9">
    <path d="M 424.832237 61.2 
Q 428.898707 61.2 431.847143 61.2 
" style="fill: none; stroke: #246783; stroke-linecap: round"/>
    <path d="M 427.767143 59.16 
L 431.847143 61.2 
L 427.767143 63.24 
" style="fill: none; stroke: #246783; stroke-linecap: round"/>
   </g>
   <g id="text_4">
    <text style="font-size: 8px; font-family: 'DejaVu Sans'; fill: #183545" transform="translate(462.392656 58.477344)">Surfaces / damage</text>
    <text style="font-size: 8px; font-family: 'DejaVu Sans'; fill: #183545" transform="translate(467.670781 68.079531)">Contract checks</text>
   </g>
   <g id="patch_10">
    <path d="M 567.632141 61.2 
Q 571.698611 61.2 574.647047 61.2 
" style="fill: none; stroke: #246783; stroke-linecap: round"/>
    <path d="M 570.567047 59.16 
L 574.647047 61.2 
L 570.567047 63.24 
" style="fill: none; stroke: #246783; stroke-linecap: round"/>
   </g>
   <g id="text_5">
    <text style="font-size: 8px; font-family: 'DejaVu Sans'; fill: #183545" transform="translate(612.158185 58.477344)">Review exports</text>
    <text style="font-size: 8px; font-family: 'DejaVu Sans'; fill: #183545" transform="translate(608.795685 68.079531)">Separate scoring</text>
   </g>
  </g>
 </g>
 <defs>
  <clipPath id="pb9f2e866b8">
   <rect x="3.00024" y="3.00024" width="713.99952" height="116.39952"/>
  </clipPath>
 </defs>
</svg>
